<svg width="23" height="23" viewBox="0 0 23 23" fill="none" xmlns="http://www.w3.org/2000/svg">
<path d="M-5.72205e-06 11.25C-5.72205e-06 13.475 0.659796 15.6501 1.89596 17.5002C3.13213 19.3502 4.88914 20.7922 6.94481 21.6436C9.00047 22.4951 11.2625 22.7179 13.4448 22.2838C15.627 21.8498 17.6316 20.7783 19.2049 19.205C20.7783 17.6316 21.8497 15.6271 22.2838 13.4448C22.7179 11.2625 22.4951 9.00048 21.6436 6.94481C20.7922 4.88914 19.3502 3.13213 17.5002 1.89597C15.6501 0.659801 13.475 0 11.25 0C8.26631 0 5.40483 1.18526 3.29504 3.29505C1.18526 5.40483 -5.72205e-06 8.26631 -5.72205e-06 11.25ZM21 11.25C21 13.1784 20.4282 15.0634 19.3568 16.6668C18.2855 18.2702 16.7627 19.5199 14.9812 20.2578C13.1996 20.9958 11.2392 21.1889 9.34786 20.8127C7.45655 20.4365 5.71926 19.5079 4.3557 18.1443C2.99214 16.7807 2.06355 15.0434 1.68734 13.1521C1.31113 11.2608 1.50422 9.30042 2.24217 7.51884C2.98012 5.73726 4.2298 4.21452 5.83319 3.14317C7.43656 2.07183 9.32163 1.5 11.25 1.5C13.8359 1.5 16.3158 2.52723 18.1443 4.35571C19.9728 6.18419 21 8.66414 21 11.25Z" fill="white"/>
<path d="M8.3475 7.05745L12.5325 11.25L8.3475 15.4425C8.20781 15.583 8.12941 15.7731 8.12941 15.9712C8.12941 16.1693 8.20781 16.3594 8.3475 16.5C8.48802 16.6396 8.67811 16.718 8.87625 16.718C9.07439 16.718 9.26448 16.6396 9.405 16.5L14.175 11.73C14.3014 11.6022 14.3723 11.4297 14.3723 11.25C14.3723 11.0702 14.3014 10.8977 14.175 10.77L9.405 5.99995C9.26448 5.86027 9.07439 5.78186 8.87625 5.78186C8.67811 5.78186 8.48802 5.86027 8.3475 5.99995V5.99995C8.20781 6.14048 8.12941 6.33057 8.12941 6.5287C8.12941 6.72684 8.20781 6.91693 8.3475 7.05745V7.05745Z" fill="white"/>
</svg>
