<svg width="20" height="20" viewBox="0 0 20 20" fill="none" xmlns="http://www.w3.org/2000/svg">
<g clip-path="url(#clip0_1_264)">
<path d="M10 -5.11903e-05C12.3145 -0.000712761 14.5575 0.801194 16.347 2.26902C18.1364 3.73684 19.3615 5.77976 19.8135 8.04963C20.2655 10.3195 19.9165 12.6759 18.8258 14.7172C17.7351 16.7586 15.9703 18.3585 13.8322 19.2445C11.694 20.1305 9.31481 20.2476 7.09997 19.576C4.88513 18.9043 2.97171 17.4855 1.68578 15.5611C0.399851 13.6368 -0.179022 11.3261 0.0478068 9.02283C0.274636 6.71953 1.29313 4.56615 2.92973 2.92964C3.85694 1.99934 4.95894 1.26158 6.17234 0.758786C7.38575 0.255994 8.6866 -0.0018976 10 -5.11903e-05ZM11.6276 8.25841C11.7327 8.17946 11.8631 8.14166 11.9941 8.15213C12.1252 8.16259 12.2478 8.22061 12.3391 8.31524C12.4303 8.40988 12.4838 8.5346 12.4895 8.66593C12.4951 8.79726 12.4526 8.92613 12.3698 9.02827L10.3256 11.053C10.2247 11.1525 10.0888 11.2083 9.94715 11.2083C9.8055 11.2083 9.66955 11.1525 9.56873 11.053L7.54887 9.05757C7.46156 8.95498 7.41571 8.82347 7.42032 8.68883C7.42494 8.55419 7.47968 8.42613 7.57381 8.32976C7.66794 8.23339 7.79468 8.17565 7.92917 8.16787C8.06366 8.16009 8.19621 8.20283 8.30083 8.28771L9.41248 9.3896L9.42225 5.50939C9.42354 5.36608 9.48171 5.22915 9.58397 5.12872C9.68622 5.0283 9.82418 4.97261 9.96749 4.97391C10.1108 4.9752 10.2477 5.03338 10.3482 5.13563C10.4486 5.23788 10.5043 5.37584 10.503 5.51915L10.4916 9.36844L11.6146 8.25841H11.6276ZM5.69666 13.2145V11.0986C5.69795 10.9553 5.75613 10.8183 5.85838 10.7179C5.96064 10.6175 6.09859 10.5618 6.24191 10.5631C6.38522 10.5644 6.52215 10.6226 6.62257 10.7248C6.72299 10.8271 6.77868 10.965 6.77739 11.1083V12.6464C8.92149 12.6464 11.0645 12.6464 13.2064 12.6464V11.0986C13.2071 11.0276 13.2217 10.9575 13.2494 10.8922C13.2772 10.8269 13.3175 10.7676 13.3681 10.7179C13.4188 10.6682 13.4787 10.6289 13.5445 10.6024C13.6103 10.5758 13.6807 10.5625 13.7517 10.5631C13.8226 10.5637 13.8928 10.5784 13.9581 10.6061C14.0234 10.6339 14.0826 10.6742 14.1323 10.7248C14.1821 10.7755 14.2213 10.8354 14.2479 10.9012C14.2745 10.967 14.2878 11.0374 14.2872 11.1083V13.2096C14.2809 13.3478 14.2219 13.4783 14.1223 13.5743C14.0227 13.6703 13.89 13.7244 13.7517 13.7255C11.2473 13.7255 8.74353 13.7255 6.24028 13.7255C6.10134 13.7266 5.96734 13.6741 5.8661 13.5789C5.76487 13.4837 5.70419 13.3532 5.69666 13.2145ZM16.1849 3.81505C14.754 2.38415 12.8713 1.49365 10.8574 1.2953C8.84353 1.09694 6.8232 1.60301 5.14063 2.72726C3.45806 3.85151 2.21736 5.52439 1.62994 7.46086C1.04251 9.39732 1.1447 11.4776 1.9191 13.3471C2.69349 15.2167 4.09218 16.7599 5.87684 17.7139C7.66149 18.6678 9.7217 18.9734 11.7064 18.5786C13.6911 18.1838 15.4776 17.1131 16.7614 15.5488C18.0451 13.9846 18.7468 12.0236 18.7468 9.99995C18.7482 8.8511 18.5226 7.71329 18.083 6.65189C17.6433 5.59048 16.9983 4.62641 16.1849 3.81505Z" fill="white"/>
</g>
<defs>
<clipPath id="clip0_1_264">
<rect width="20" height="20" fill="white"/>
</clipPath>
</defs>
</svg>
