<svg width="30" height="20" viewBox="0 0 30 20" fill="none" xmlns="http://www.w3.org/2000/svg">
<path fill-rule="evenodd" clip-rule="evenodd" d="M0 1.72988V18.0381C0 18.9253 0.676442 19.6443 1.60838 19.6443H28.1207C29.0516 19.6443 29.729 18.9169 29.729 18.0381V1.72988C29.729 0.756259 29.1232 0 28.1207 0H1.60838C0.567087 0 0 0.774843 0 1.72988ZM2.44451 3.15039C2.44451 2.75741 2.69227 2.53252 3.08807 2.53252C3.33291 2.53252 12.9668 8.39288 13.5503 8.73662L15.0581 9.63682C15.5361 9.32931 16.0161 9.06641 16.5116 8.74775C17.5229 8.12716 26.521 2.53252 26.7687 2.53252C27.1655 2.53252 27.4123 2.75741 27.4123 3.15039C27.4123 3.56659 26.5771 3.97998 26.0332 4.29863C22.6161 6.29791 19.2 8.47738 15.8168 10.551C15.6194 10.6792 15.2371 10.9533 14.9506 10.9115C14.6313 10.8641 4.82806 4.81791 3.04451 3.81084C2.77645 3.65941 2.44451 3.52107 2.44451 3.15039Z" fill="url(#paint0_linear_1_73)"/>
<defs>
<linearGradient id="paint0_linear_1_73" x1="14.8645" y1="0" x2="14.8645" y2="19.6443" gradientUnits="userSpaceOnUse">
<stop stop-color="#0066FF"/>
<stop offset="1" stop-color="#260093"/>
</linearGradient>
</defs>
</svg>
