<svg width="25" height="25" viewBox="0 0 25 25" fill="none" xmlns="http://www.w3.org/2000/svg">
<rect width="25" height="25" fill="white"/>
<path d="M23.75 5H7.25C6.91848 5 6.60054 5.1317 6.36612 5.36612C6.1317 5.60054 6 5.91848 6 6.25V19.75C6 20.0815 6.1317 20.3995 6.36612 20.6339C6.60054 20.8683 6.91848 21 7.25 21H23.75C24.0815 21 24.3995 20.8683 24.6339 20.6339C24.8683 20.3995 25 20.0815 25 19.75V6.25C25 5.91848 24.8683 5.60054 24.6339 5.36612C24.3995 5.1317 24.0815 5 23.75 5ZM7.25 6H23.75C23.8163 6 23.8799 6.02634 23.9268 6.07322C23.9737 6.12011 24 6.1837 24 6.25L15.5 14.25L7 6.28C6.99582 6.24713 6.99821 6.21376 7.00703 6.18182C7.01586 6.14989 7.03095 6.12003 7.05142 6.09397C7.07189 6.06792 7.09733 6.04619 7.12628 6.03006C7.15522 6.01393 7.18707 6.00371 7.22 6H7.25ZM23.75 20H7.25C7.1837 20 7.12011 19.9737 7.07322 19.9268C7.02634 19.8799 7 19.8163 7 19.75V7.66L15.16 15.36C15.253 15.4486 15.3765 15.4981 15.505 15.4981C15.6335 15.4981 15.757 15.4486 15.85 15.36L24 7.66V19.75C24 19.8163 23.9737 19.8799 23.9268 19.9268C23.8799 19.9737 23.8163 20 23.75 20ZM5 11H0V10H5V11ZM5 14H1V13H5V14ZM5 17H2V16H5V17Z" fill="#56586F"/>
</svg>
