<svg width="40" height="40" viewBox="0 0 40 40" fill="none" xmlns="http://www.w3.org/2000/svg">
<path d="M38.325 1.61244C38.1918 1.47786 38.0298 1.37529 37.8511 1.31249C37.6725 1.2497 37.4819 1.22831 37.2938 1.24994C26.7831 2.25363 16.938 6.844 9.41253 14.2499L1.83126 15.9187C1.61118 15.9654 1.40778 16.0706 1.24251 16.2232C1.07724 16.3758 0.956218 16.5703 0.892218 16.7859C0.828224 17.0016 0.823618 17.2305 0.878887 17.4486C0.934156 17.6667 1.04726 17.8658 1.20626 18.0249L22.0688 38.8812C22.2279 39.0402 22.427 39.1533 22.6451 39.2086C22.8632 39.2638 23.0921 39.2593 23.3078 39.1952C23.5235 39.1312 23.7178 39.0102 23.8705 38.8449C24.0232 38.6797 24.1283 38.4762 24.175 38.2562L25.85 30.6687C33.2552 23.0998 37.7942 13.1887 38.6875 2.63744C38.7082 2.45033 38.6863 2.26096 38.6235 2.08347C38.5608 1.90599 38.4587 1.74497 38.325 1.61244ZM25.7063 18.6937C20.0375 18.5312 20.0063 10.2687 25.7063 10.0937C31.4 10.2687 31.3688 18.5312 25.7063 18.6937Z" fill="url(#paint0_linear_1_155)"/>
<path d="M6.10001 27.2438C5.94477 27.0881 5.75118 26.976 5.53878 26.919C5.32639 26.862 5.10271 26.862 4.89032 26.919C4.67793 26.9761 4.48436 27.0882 4.32914 27.244C4.17391 27.3998 4.06255 27.5938 4.00626 27.8063L1.58751 36.8313C1.53011 37.044 1.52991 37.268 1.58693 37.4808C1.64395 37.6935 1.75618 37.8874 1.91223 38.0428C2.06829 38.1983 2.26264 38.3096 2.47561 38.3658C2.68858 38.422 2.91261 38.4209 3.12501 38.3626L12.15 35.9438C12.3626 35.8876 12.5566 35.7762 12.7124 35.621C12.8682 35.4658 12.9803 35.2722 13.0373 35.0598C13.0944 34.8474 13.0944 34.6237 13.0373 34.4113C12.9803 34.199 12.8683 34.0053 12.7125 33.8501L6.10001 27.2438Z" fill="url(#paint1_linear_1_155)"/>
<defs>
<linearGradient id="paint0_linear_1_155" x1="19.7678" y1="1.24176" x2="19.7678" y2="39.2469" gradientUnits="userSpaceOnUse">
<stop stop-color="#0066FF"/>
<stop offset="1" stop-color="#260093"/>
</linearGradient>
<linearGradient id="paint1_linear_1_155" x1="7.31223" y1="26.8762" x2="7.31223" y2="38.4071" gradientUnits="userSpaceOnUse">
<stop stop-color="#0066FF"/>
<stop offset="1" stop-color="#260093"/>
</linearGradient>
</defs>
</svg>
