<svg width="408" height="369" viewBox="0 0 408 369" fill="none" xmlns="http://www.w3.org/2000/svg">
<g clip-path="url(#clip0_1_232)">
<path d="M285.667 69.4198C285.867 70.8016 286.598 72.051 287.706 72.9021C288.814 73.7533 290.21 74.139 291.598 73.9772C291.879 73.9398 292.157 73.8793 292.429 73.7961L303.609 88.7906L313.22 85.7992L295.682 66.9131C295.25 65.8146 294.465 64.8899 293.452 64.2835C292.438 63.677 291.252 63.4229 290.079 63.5607C289.412 63.6456 288.769 63.8608 288.185 64.1942C287.601 64.5275 287.089 64.9725 286.678 65.5037C286.266 66.0348 285.963 66.6418 285.787 67.2898C285.61 67.9379 285.563 68.6144 285.647 69.2807C285.653 69.3272 285.66 69.3735 285.667 69.4198Z" fill="#D0ABB0"/>
<path d="M364.613 136.389C364.613 136.389 322.867 116.922 312.307 104.488L293.384 81.013L302.981 73.1686L320.767 93.6387C320.605 97.9398 341.628 102.349 352.93 108.619L364.613 136.389Z" fill="url(#paint0_linear_1_232)"/>
<path d="M374.876 359.425L366.688 359.425L362.793 327.866L374.878 327.867L374.876 359.425Z" fill="#D0ABB0"/>
<path d="M375.165 367.96L349.984 367.959V367.641C349.985 365.044 351.017 362.553 352.855 360.717C354.693 358.88 357.186 357.848 359.785 357.848H359.786L364.385 354.362L372.967 357.849L375.165 357.849L375.165 367.96Z" fill="white"/>
<path d="M355.355 352.207L347.381 354.065L336.411 324.217L348.18 321.474L355.355 352.207Z" fill="#D0ABB0"/>
<path d="M357.577 360.453L333.055 366.169L332.983 365.859C332.392 363.33 332.832 360.67 334.204 358.464C335.576 356.258 337.769 354.688 340.3 354.097L340.301 354.097L343.987 349.658L353.137 351.105L355.278 350.606L357.577 360.453Z" fill="white"/>
<path d="M275.433 175.145H47.5122C46.0738 175.128 44.642 174.947 43.2449 174.604C39.075 173.603 35.3652 171.226 32.7155 167.857C30.0658 164.487 28.6314 160.323 28.6441 156.038V78.6319C28.6521 73.5687 30.6698 68.7153 34.2547 65.1367C37.8395 61.5581 42.6987 59.5464 47.7661 59.543H275.433C278.502 59.5349 281.527 60.2746 284.245 61.6981C285.327 62.2589 286.351 62.9263 287.301 63.6903C289.569 65.4643 291.402 67.7326 292.659 70.3221C293.916 72.9116 294.565 75.7538 294.555 78.6319V156.038C294.55 161.104 292.533 165.961 288.948 169.542C285.363 173.124 280.503 175.139 275.433 175.145Z" fill="#F2F2F2"/>
<path d="M260.156 173.452C270.505 148.322 281.407 123.439 292.862 98.8047V140.571C284.918 152.417 276.111 163.535 265.898 173.452H260.156Z" fill="url(#paint1_linear_1_232)"/>
<path d="M286.239 65.0093C265.762 101.715 244.337 137.863 221.963 173.452H218.068C240.814 137.305 262.612 100.553 283.461 63.1985C284.445 63.7082 285.376 64.3148 286.239 65.0093Z" fill="url(#paint2_linear_1_232)"/>
<path d="M135.974 105.083C122.593 128.723 107.826 151.552 91.7514 173.452H68.5308C83.7403 154.939 98.961 136.425 114.193 117.911C118.563 112.58 123.305 106.995 129.86 104.829L135.974 105.083Z" fill="url(#paint3_linear_1_232)"/>
<path d="M105.115 101.292C102.693 103.814 100.372 106.437 98.1875 109.162C93.3774 114.949 88.635 120.788 83.8757 126.609C80.9117 130.231 77.9478 133.852 75.0177 137.474C74.0872 136.877 73.2038 136.209 72.3755 135.477C67.6953 131.418 64.7923 125.689 64.2887 119.518C63.785 113.346 65.7207 107.223 69.681 102.461C73.6413 97.698 79.3111 94.6748 85.4755 94.0389C91.6398 93.4029 97.8082 95.2048 102.659 99.0585C103.533 99.7397 104.354 100.487 105.115 101.292Z" fill="white"/>
<path d="M236.089 117.742L191.578 101.479L169.475 93.4063C162.277 90.7831 155.096 87.7878 147.661 85.8925C141.194 84.046 134.328 84.1342 127.912 86.1462C122.19 88.262 116.954 91.5081 112.516 95.6909C110.552 97.5016 108.649 99.3688 106.809 101.292C104.386 103.814 102.066 106.437 99.8812 109.162C95.0711 114.949 90.3287 120.788 85.5695 126.609C82.6055 130.231 79.6415 133.852 76.7114 137.474C66.9218 149.439 57.1887 161.431 47.512 173.452C46.2102 173.437 44.9145 173.273 43.6504 172.962C53.7449 160.439 63.8845 147.944 74.0693 135.477C75.238 134.022 76.4404 132.549 77.626 131.094C82.5886 125.019 87.5567 118.949 92.5306 112.885C96.3753 108.197 100.186 103.475 104.353 99.0586C104.725 98.6524 105.098 98.2632 105.487 97.857C113.939 89.1247 124.491 81.4078 137.126 81.2047C144.561 81.0863 151.742 83.4386 158.653 85.9262C166.088 88.617 173.507 91.3586 180.942 94.0832L225.757 110.465L236.969 114.56C238.951 115.271 238.104 118.486 236.089 117.742Z" fill="url(#paint4_linear_1_232)"/>
<path d="M1.17932 87.2962V40.8251C1.18178 39.3747 1.7599 37.9846 2.78685 36.9596C3.81379 35.9346 5.2057 35.3585 6.65723 35.3577H66.9261V34.1793H6.65723C4.89302 34.1805 3.20133 34.8808 1.95329 36.1267C0.70524 37.3726 0.00277142 39.0623 0 40.8251V87.2962L1.17932 87.2962Z" fill="#56586F"/>
<path d="M5.36281 199.176C4.1681 198.889 3.10516 198.208 2.34596 197.243C1.58677 196.277 1.17574 195.084 1.17935 193.857V147.392H2.94501e-05V193.857C-0.0044181 195.349 0.495005 196.798 1.41748 197.971C2.33996 199.144 3.63153 199.972 5.08324 200.32C5.56964 200.44 6.06812 200.503 6.5689 200.509H66.9262V199.33H6.5761C6.16712 199.325 5.76007 199.273 5.36281 199.176Z" fill="#56586F"/>
<path d="M275.37 147.392V193.857C275.368 195.308 274.791 196.699 273.764 197.725C272.737 198.751 271.344 199.328 269.892 199.33H209.623V200.509H269.892C271.657 200.507 273.349 199.805 274.597 198.558C275.845 197.311 276.547 195.62 276.549 193.857V147.392H275.37Z" fill="#56586F"/>
<path d="M274.186 35.9752C274.495 36.1357 274.788 36.3267 275.059 36.5454C275.709 37.0532 276.235 37.7028 276.595 38.4445C276.956 39.1862 277.142 40.0004 277.139 40.8249V87.2961H278.319V40.825C278.322 39.823 278.096 38.8334 277.658 37.9319C277.221 37.0304 276.583 36.2407 275.793 35.6231C275.462 35.3571 275.106 35.1247 274.729 34.9295C273.783 34.4339 272.73 34.1764 271.661 34.1792H211.392V35.3576H271.661C272.54 35.3553 273.407 35.5673 274.186 35.9752Z" fill="#56586F"/>
<path d="M382.657 206L331.709 208.552L328.171 225.638V240.856L326 297.521L341.144 341.705H353.285L352.053 336.107C352.726 335.166 353.105 334.047 353.14 332.891C353.176 331.734 352.867 330.593 352.253 329.613L351.279 328.057L349.694 321.378L346.156 296.633L361.308 240.856L363.256 342.588H376.446L378.381 340.381C379.455 339.155 380.095 337.609 380.2 335.982C380.306 334.356 379.872 332.741 378.966 331.386V328.919L377.408 320.2L391.944 211.964L382.657 206Z" fill="#101320"/>
<path d="M359.958 100.128L343.339 100.978L341.451 108.848L329.382 118.077C326.653 120.164 324.563 122.971 323.347 126.182C322.131 129.393 321.838 132.88 322.501 136.248L329.19 170.253L328.755 191.537L329.721 200.252L329.648 201.571L328.17 202.78C327.164 203.602 326.469 204.742 326.198 206.011C325.928 207.281 326.097 208.605 326.68 209.765C326.68 209.765 319.397 225.497 329.935 226.298C340.472 227.098 346.99 216.15 357.059 220.406C367.127 224.662 376.116 225.161 378.876 220.406C381.636 215.651 390.034 216.759 391.044 212.605C392.053 208.451 386.941 203.749 386.254 197.557C385.567 191.365 383.798 162.495 383.798 162.495L388.745 134.152C389.446 130.139 388.821 126.008 386.966 122.381C385.11 118.754 382.125 115.828 378.459 114.045L362.621 106.34L359.958 100.128Z" fill="url(#paint5_linear_1_232)"/>
<path d="M273.405 188.869C274.074 187.428 275.278 186.304 276.763 185.737C278.248 185.17 279.896 185.204 281.356 185.832C281.651 185.964 281.935 186.121 282.204 186.3L299.281 173.594L308.782 179.984L283.505 194.862C282.676 195.919 281.519 196.672 280.217 197.003C278.914 197.334 277.538 197.225 276.304 196.693C275.605 196.383 274.973 195.939 274.446 195.385C273.918 194.832 273.505 194.18 273.23 193.467C272.954 192.754 272.822 191.994 272.841 191.23C272.859 190.466 273.029 189.713 273.338 189.014C273.36 188.966 273.382 188.917 273.405 188.869Z" fill="#D0ABB0"/>
<path d="M326.465 121.861C326.465 121.861 304.328 162.136 295.756 173.982L289.248 179.061L289.838 195.661L304.38 187.643C304.38 187.643 333.724 165.433 332.883 156.186C332.042 146.939 326.465 121.861 326.465 121.861Z" fill="url(#paint6_linear_1_232)"/>
<path d="M350.238 98.7979C358.911 98.7979 365.942 91.7729 365.942 83.1072C365.942 74.4415 358.911 67.4165 350.238 67.4165C341.565 67.4165 334.535 74.4415 334.535 83.1072C334.535 91.7729 341.565 98.7979 350.238 98.7979Z" fill="#D0ABB0"/>
<path d="M356.306 97.5117C351.8 97.364 351.39 96.1747 346.884 96.0269C345.449 95.9799 343.756 95.7834 343.062 94.5275C342.568 93.633 342.796 92.5066 343.23 91.582C343.745 90.6995 344.208 89.7885 344.619 88.8534C344.866 88.12 344.931 87.3375 344.808 86.5735C344.684 85.8095 344.377 85.087 343.912 84.4683C343.446 83.8497 342.837 83.3536 342.137 83.0229C341.437 82.6922 340.667 82.5368 339.893 82.5702C338.521 82.6294 337.233 83.2738 335.866 83.3915C333.99 83.5531 329.843 77.3657 330.707 75.6943C331.547 74.0674 333.239 72.84 333.505 71.0284C333.678 69.8436 333.189 68.6664 333.122 67.4707C333.023 65.698 337.52 69.6952 336.697 68.1219C334.676 64.2625 353.716 59.4779 356.851 64.3121C358.022 66.1189 360.11 65.9956 361.971 67.0807C363.191 67.7919 366.27 70.2454 366.971 71.7746C367.614 73.335 367.918 75.0142 367.862 76.7009C367.891 84.5453 366.695 91.7609 360.362 96.3977" fill="#1A1B29"/>
<path d="M278.017 364.347C273.759 364.722 269.47 364.142 265.465 362.649C261.46 361.156 257.839 358.788 254.867 355.718C250.981 351.624 248.314 346.355 245.735 341.259C244.984 339.776 244.208 338.243 243.419 336.773C242.539 335.171 242.159 333.342 242.328 331.522C242.498 329.702 243.208 327.974 244.369 326.561C245.482 325.149 246.992 324.102 248.705 323.555C250.419 323.008 252.257 322.986 253.982 323.493L254.359 323.601L257.746 336.807C258.251 334.837 259.336 330.399 260.021 326.051L260.078 325.687L260.415 325.837C263.952 327.4 267.278 329.403 270.314 331.797C275.692 336.107 280.066 341.536 283.132 347.706C286.199 353.876 287.883 360.639 288.069 367.526L288.078 367.936L278.017 364.347Z" fill="#F2F2F2"/>
<path d="M407.298 368.819L242.931 369C242.745 368.999 242.567 368.925 242.436 368.794C242.304 368.662 242.231 368.484 242.231 368.298C242.231 368.113 242.304 367.935 242.436 367.803C242.567 367.672 242.745 367.597 242.931 367.597L407.298 367.416C407.39 367.416 407.482 367.434 407.567 367.469C407.653 367.504 407.73 367.555 407.796 367.621C407.861 367.686 407.913 367.763 407.948 367.848C407.984 367.934 408.002 368.025 408.002 368.117C408.002 368.21 407.984 368.301 407.948 368.386C407.913 368.472 407.861 368.549 407.796 368.614C407.73 368.679 407.653 368.731 407.567 368.766C407.482 368.801 407.39 368.819 407.298 368.819Z" fill="#CACACA"/>
</g>
<defs>
<linearGradient id="paint0_linear_1_232" x1="328.999" y1="73.1686" x2="328.999" y2="136.389" gradientUnits="userSpaceOnUse">
<stop stop-color="#0066FF"/>
<stop offset="1" stop-color="#260093"/>
</linearGradient>
<linearGradient id="paint1_linear_1_232" x1="260.156" y1="141.46" x2="292.862" y2="141.452" gradientUnits="userSpaceOnUse">
<stop stop-color="#5096FF"/>
<stop offset="1" stop-color="#2368CF"/>
</linearGradient>
<linearGradient id="paint2_linear_1_232" x1="218.068" y1="126.201" x2="286.239" y2="126.176" gradientUnits="userSpaceOnUse">
<stop stop-color="#5096FF"/>
<stop offset="1" stop-color="#2368CF"/>
</linearGradient>
<linearGradient id="paint3_linear_1_232" x1="68.5308" y1="144.043" x2="135.974" y2="144.004" gradientUnits="userSpaceOnUse">
<stop stop-color="#5096FF"/>
<stop offset="1" stop-color="#2368CF"/>
</linearGradient>
<linearGradient id="paint4_linear_1_232" x1="43.6504" y1="133.916" x2="238.096" y2="133.675" gradientUnits="userSpaceOnUse">
<stop stop-color="#5096FF"/>
<stop offset="1" stop-color="#2368CF"/>
</linearGradient>
<linearGradient id="paint5_linear_1_232" x1="356.665" y1="100.128" x2="356.665" y2="226.34" gradientUnits="userSpaceOnUse">
<stop stop-color="#0066FF"/>
<stop offset="1" stop-color="#260093"/>
</linearGradient>
<linearGradient id="paint6_linear_1_232" x1="311.075" y1="121.861" x2="311.075" y2="195.661" gradientUnits="userSpaceOnUse">
<stop stop-color="#0066FF"/>
<stop offset="1" stop-color="#260093"/>
</linearGradient>
<clipPath id="clip0_1_232">
<rect width="408" height="369" fill="white"/>
</clipPath>
</defs>
</svg>
