<svg width="23" height="28" viewBox="0 0 23 28" fill="none" xmlns="http://www.w3.org/2000/svg">
<g clip-path="url(#clip0_1_86)" filter="url(#filter0_d_1_86)">
<path d="M-0.857178 -1.5H23.8571V21.5H-0.857178V-1.5Z" stroke="#2400FF"/>
<path d="M4.5 7C4.5 3.43807 7.59666 0.5 11.5 0.5C15.4033 0.5 18.5 3.43807 18.5 7C18.5 8.93037 17.3891 11.3047 15.9684 13.5283C14.5625 15.7287 12.9136 17.6911 11.9515 18.7776C11.7215 19.0343 11.2883 19.0341 11.0587 18.777C10.0919 17.6912 8.4401 15.7287 7.03284 13.5281C5.6109 11.3046 4.5 8.93032 4.5 7ZM8.32143 7C8.32143 8.68807 9.77834 10 11.5 10C13.2217 10 14.6786 8.68807 14.6786 7C14.6786 5.31193 13.2217 4 11.5 4C9.77834 4 8.32143 5.31193 8.32143 7Z" stroke="#2400FF"/>
</g>
<defs>
<filter id="filter0_d_1_86" x="0" y="0" width="23" height="28" filterUnits="userSpaceOnUse" color-interpolation-filters="sRGB">
<feFlood flood-opacity="0" result="BackgroundImageFix"/>
<feColorMatrix in="SourceAlpha" type="matrix" values="0 0 0 0 0 0 0 0 0 0 0 0 0 0 0 0 0 0 127 0" result="hardAlpha"/>
<feOffset dy="4"/>
<feGaussianBlur stdDeviation="2"/>
<feComposite in2="hardAlpha" operator="out"/>
<feColorMatrix type="matrix" values="0 0 0 0 0 0 0 0 0 0 0 0 0 0 0 0 0 0 0.25 0"/>
<feBlend mode="normal" in2="BackgroundImageFix" result="effect1_dropShadow_1_86"/>
<feBlend mode="normal" in="SourceGraphic" in2="effect1_dropShadow_1_86" result="shape"/>
</filter>
<clipPath id="clip0_1_86">
<rect width="15" height="20" fill="white" transform="translate(4)"/>
</clipPath>
</defs>
</svg>
