<svg width="31" height="30" viewBox="0 0 31 30" fill="none" xmlns="http://www.w3.org/2000/svg">
<g clip-path="url(#clip0_1_193)">
<path d="M1.88704 3.93948C1.88704 4.19668 1.78764 4.44334 1.61069 4.6252C1.43375 4.80706 1.19376 4.90923 0.943522 4.90923C0.693285 4.90923 0.453296 4.80706 0.276351 4.6252C0.0994065 4.44334 3.72883e-09 4.19668 0 3.93948L0 -0.0302663C0.00066587 -0.287249 0.100286 -0.533512 0.277087 -0.715227C0.453887 -0.896942 0.693489 -0.999331 0.943522 -1.00002H1.0293H6.34481C6.47231 -1.00681 6.59983 -0.986861 6.71959 -0.941389C6.83936 -0.895917 6.94887 -0.825871 7.04145 -0.735514C7.13404 -0.645158 7.20777 -0.536382 7.25815 -0.415807C7.30853 -0.295232 7.33451 -0.16538 7.33451 -0.0341557C7.33451 0.0970685 7.30853 0.22692 7.25815 0.347495C7.20777 0.468071 7.13404 0.576847 7.04145 0.667203C6.94887 0.757559 6.83936 0.827605 6.71959 0.873077C6.59983 0.91855 6.47231 0.938497 6.34481 0.931704H1.88704V3.93948ZM4.24333 7.41399C9.75057 0.413122 16.1004 -3.38031 20.8609 2.84009C26.3354 3.13568 28.6816 11.6767 24.915 15.8902C25.1781 15.8785 25.4394 15.9394 25.6719 16.0665L25.7097 16.0899C25.9922 16.2635 26.199 16.5419 26.2874 16.8677C26.4015 17.3384 26.3849 17.8324 26.2395 18.2938L26.2218 18.3509C26.1537 18.5583 26.0932 18.8228 26.0326 19.0977C25.7804 20.2204 25.5028 21.4572 24.2667 21.3898C24.1998 21.3873 24.1331 21.3795 24.0674 21.3665C24.0195 23.7001 22.9119 24.7658 21.4639 26.1659L20.9063 26.7079C19.4406 28.1599 17.8361 28.8652 16.2064 28.8677C14.5767 28.8703 12.8662 28.134 11.3273 26.7234L10.7824 26.2256C9.36206 24.9706 8.17635 23.9205 7.95182 21.3613H7.82064C7.528 21.3615 7.24029 21.2838 6.9856 21.1357C6.40283 20.796 6.08748 20.1478 5.93359 19.4088C5.77652 18.4981 5.76459 17.5672 5.89827 16.6525C5.90382 16.6072 5.91484 16.5628 5.93107 16.5203C6.13542 15.9343 6.39274 15.618 6.71314 15.4831C6.56681 12.6906 7.02596 8.26965 4.23828 7.40361L4.24333 7.41399ZM20.1369 8.07518C19.1064 9.15528 17.7169 9.79526 16.2467 9.86688C15.8633 9.93689 15.4899 9.98356 15.1165 10.0302C13.8678 10.1884 12.6215 10.3466 10.9691 11.5212C10.2473 11.9958 9.69349 12.6968 9.38981 13.5203C9.11226 14.4205 9.08604 15.3826 9.31413 16.2973C9.34097 16.3968 9.34064 16.502 9.31319 16.6013C9.28574 16.7007 9.23221 16.7903 9.15849 16.8605C9.08476 16.9306 8.99367 16.9786 8.89519 16.9991C8.79671 17.0196 8.69465 17.0118 8.60018 16.9766L7.96948 16.7381C7.45231 16.554 7.12939 16.4788 6.9755 16.8703C6.86765 17.6364 6.87787 18.4152 7.00578 19.178C7.10164 19.6292 7.25806 20.0078 7.528 20.1633C7.62286 20.2174 7.72982 20.2451 7.8383 20.2437C7.98999 20.2421 8.14056 20.2167 8.28483 20.1685C8.33772 20.15 8.39297 20.1395 8.44881 20.1374C8.59316 20.1346 8.73273 20.1905 8.83715 20.293C8.94157 20.3955 9.00238 20.5362 9.00635 20.6845C9.06437 23.2256 10.1618 24.1979 11.4963 25.3777L12.0539 25.8755C13.3935 27.102 14.8037 27.7346 16.1862 27.7346C17.5687 27.7346 18.8755 27.1305 20.1293 25.8859L20.6868 25.344C22.087 23.9905 23.1188 22.9948 22.9195 20.5704C22.9111 20.4442 22.9429 20.3185 23.0103 20.2126C23.0905 20.0888 23.2152 20.0026 23.357 19.973C23.4988 19.9433 23.6463 19.9726 23.7672 20.0544C23.8579 20.1189 23.9562 20.1712 24.0598 20.21C24.135 20.2398 24.2141 20.2582 24.2944 20.2645C24.6274 20.2826 24.799 19.5281 24.9504 18.841C25.0095 18.551 25.0837 18.2645 25.1724 17.9827C25.255 17.7324 25.2732 17.4645 25.2253 17.2048C25.214 17.1525 25.1855 17.1058 25.1446 17.0726H25.1295C25.0422 17.0338 24.946 17.0213 24.852 17.0363C24.5114 17.0897 24.1909 17.2356 23.9236 17.4589C23.8346 17.5279 23.7273 17.5672 23.616 17.5715C23.5046 17.5758 23.3947 17.5449 23.301 17.4831C23.2072 17.4212 23.1342 17.3313 23.0917 17.2254C23.0492 17.1196 23.0393 17.0029 23.0633 16.8911C23.5679 13.8055 23.3433 11.7934 22.7026 10.4244C22.1425 9.22125 21.2494 8.49523 20.2807 7.95072L20.1243 8.07259L20.1369 8.07518ZM14.4707 14.013C15.0585 14.2385 15.1821 14.7416 14.8542 14.9308C14.4682 15.1538 13.9838 14.8219 13.6079 14.6975C12.6265 14.376 11.461 14.3397 10.6159 14.8842C10.3692 15.0476 10.1386 15.2351 9.92717 15.4442C10.0089 15.1302 10.1504 14.8358 10.3434 14.5782C11.1961 13.4762 13.3355 13.4114 14.4707 14.013ZM11.4181 16.1728C11.3869 16.1839 11.3537 16.188 11.3207 16.1849C11.2878 16.1818 11.2559 16.1716 11.2271 16.155C11.1983 16.1383 11.1732 16.1156 11.1535 16.0883C11.1338 16.061 11.12 16.0297 11.1129 15.9965C11.0902 15.9285 11.0929 15.8543 11.1204 15.7882C11.1479 15.7221 11.1982 15.6688 11.2617 15.6387C12.2021 15.2631 13.2452 15.2631 14.1856 15.6387C14.2497 15.6669 14.3013 15.7187 14.3302 15.7839C14.3592 15.8491 14.3634 15.9231 14.342 15.9913C14.3358 16.0246 14.3227 16.0561 14.3037 16.0838C14.2847 16.1114 14.2602 16.1346 14.2318 16.1518C14.2034 16.169 14.1718 16.1797 14.139 16.1833C14.1063 16.187 14.0731 16.1834 14.0418 16.1728C13.8841 16.1141 13.7232 16.0648 13.56 16.0251C13.5759 16.086 13.5844 16.1487 13.5852 16.2117C13.5747 16.389 13.4987 16.5555 13.3728 16.6772C13.247 16.799 13.0807 16.8667 12.9078 16.8667C12.735 16.8667 12.5687 16.799 12.4428 16.6772C12.317 16.5555 12.241 16.389 12.2305 16.2117C12.2307 16.1228 12.2478 16.0347 12.2809 15.9524C11.9851 15.9908 11.6952 16.0674 11.4181 16.1806V16.1728ZM17.6948 14.013C17.107 14.2385 16.9834 14.7416 17.3114 14.9308C17.6973 15.1538 18.1817 14.8219 18.5576 14.6975C19.539 14.376 20.702 14.3397 21.5496 14.8842C21.7963 15.0476 22.0269 15.2351 22.2384 15.4442C22.1566 15.1302 22.0151 14.8358 21.8221 14.5782C20.9694 13.4762 18.8301 13.4114 17.6948 14.013ZM18.7922 15.9628C18.7617 16.0456 18.7463 16.1335 18.7468 16.2221C18.7574 16.3994 18.8333 16.5659 18.9592 16.6876C19.0851 16.8093 19.2514 16.8771 19.4242 16.8771C19.597 16.8771 19.7633 16.8093 19.8892 16.6876C20.0151 16.5659 20.091 16.3994 20.1016 16.2221C20.1021 16.115 20.0779 16.0092 20.0309 15.9136C20.3348 15.9479 20.6342 16.0157 20.924 16.1158C20.956 16.1254 20.9897 16.1279 21.0228 16.1231C21.0558 16.1183 21.0875 16.1063 21.1157 16.0879C21.1439 16.0695 21.1679 16.0451 21.1862 16.0164C21.2045 15.9876 21.2166 15.9552 21.2217 15.9213C21.2407 15.8525 21.2345 15.7788 21.2043 15.7144C21.174 15.6499 21.1219 15.599 21.0577 15.5713C20.5855 15.4112 20.0917 15.3289 19.5945 15.3276C19.103 15.3331 18.6156 15.4207 18.1514 15.5868C18.0871 15.6145 18.0348 15.6653 18.0041 15.7297C17.9735 15.7941 17.9667 15.8677 17.9849 15.9369C18.0006 16.0024 18.0404 16.059 18.0959 16.0949C18.1515 16.1307 18.2185 16.1428 18.2826 16.1288C18.4479 16.0709 18.6164 16.0233 18.7872 15.9862L18.7922 15.9628ZM14.9526 21.5998C14.8726 21.5268 14.8235 21.4247 14.8155 21.3151C14.8076 21.2055 14.8415 21.097 14.9101 21.0127C14.9787 20.9284 15.0766 20.8749 15.1829 20.8634C15.2893 20.852 15.3958 20.8836 15.4798 20.9516C15.6418 21.1066 15.8516 21.1984 16.0727 21.2109C16.3042 21.1986 16.5236 21.1011 16.6908 20.936C16.732 20.9006 16.7797 20.874 16.8311 20.8577C16.8824 20.8414 16.9364 20.8358 16.9899 20.8411C17.0434 20.8464 17.0954 20.8625 17.1428 20.8886C17.1902 20.9147 17.232 20.9502 17.266 20.9931C17.3342 21.0793 17.3667 21.1897 17.3563 21.3004C17.3459 21.411 17.2935 21.513 17.2105 21.5843C16.8939 21.8763 16.4854 22.0411 16.0601 22.0484C15.6482 22.0397 15.254 21.8754 14.9526 21.5868V21.5998ZM13.729 24.2109C13.6721 24.1884 13.6204 24.1537 13.5774 24.1091C13.5345 24.0646 13.5012 24.0112 13.4798 23.9525C13.4584 23.8937 13.4494 23.831 13.4533 23.7684C13.4573 23.7058 13.4741 23.6448 13.5027 23.5894C13.5312 23.534 13.5709 23.4854 13.6191 23.4469C13.6673 23.4085 13.7229 23.3809 13.7822 23.3661C13.8415 23.3514 13.9032 23.3497 13.9631 23.3612C14.0231 23.3727 14.08 23.3972 14.1301 23.433C14.7313 23.7797 15.4062 23.9693 16.0954 23.9853C16.7746 23.9766 17.4401 23.7882 18.0278 23.4382C18.0775 23.4099 18.1322 23.392 18.1886 23.3854C18.245 23.3789 18.3022 23.3838 18.3567 23.3999C18.4113 23.4161 18.4623 23.4431 18.5067 23.4795C18.5511 23.5158 18.5881 23.5608 18.6156 23.6119C18.6431 23.663 18.6606 23.7191 18.667 23.7771C18.6734 23.8351 18.6686 23.8939 18.6529 23.95C18.6372 24.0061 18.6109 24.0584 18.5755 24.1041C18.5401 24.1498 18.4963 24.1878 18.4466 24.2161C17.7324 24.64 16.9227 24.8643 16.0979 24.8669C15.2684 24.8522 14.455 24.6287 13.729 24.2161V24.2109ZM29.118 24.0605C29.118 23.8033 29.2174 23.5566 29.3944 23.3748C29.5713 23.1929 29.8113 23.0907 30.0615 23.0907C30.3118 23.0907 30.5518 23.1929 30.7287 23.3748C30.9056 23.5566 31.005 23.8033 31.005 24.0605V28.0406C31.0044 28.2976 30.9048 28.5439 30.728 28.7256C30.5512 28.9073 30.3116 29.0097 30.0615 29.0104H29.9757H24.6552C24.5277 29.0171 24.4002 28.9972 24.2804 28.9517C24.1606 28.9063 24.0511 28.8362 23.9585 28.7459C23.866 28.6555 23.7922 28.5467 23.7418 28.4261C23.6915 28.3056 23.6655 28.1757 23.6655 28.0445C23.6655 27.9133 23.6915 27.7834 23.7418 27.6628C23.7922 27.5423 23.866 27.4335 23.9585 27.3431C24.0511 27.2528 24.1606 27.1827 24.2804 27.1373C24.4002 27.0918 24.5277 27.0718 24.6552 27.0786H29.113V24.0605H29.118ZM31.005 3.93948C31.005 4.19668 30.9056 4.44334 30.7287 4.6252C30.5518 4.80706 30.3118 4.90923 30.0615 4.90923C29.8113 4.90923 29.5713 4.80706 29.3944 4.6252C29.2174 4.44334 29.118 4.19668 29.118 3.93948V0.93689H24.6552C24.5277 0.943682 24.4002 0.923735 24.2804 0.878263C24.1606 0.832791 24.0511 0.762745 23.9585 0.672389C23.866 0.582033 23.7922 0.473256 23.7418 0.352681C23.6915 0.232106 23.6655 0.102254 23.6655 -0.0289699C23.6655 -0.160194 23.6915 -0.290046 23.7418 -0.410621C23.7922 -0.531196 23.866 -0.639972 23.9585 -0.730329C24.0511 -0.820685 24.1606 -0.890731 24.2804 -0.936203C24.4002 -0.981675 24.5277 -1.00162 24.6552 -0.99483H29.9707H30.0565C30.3065 -0.994146 30.5461 -0.891756 30.7229 -0.710041C30.8997 -0.528326 30.9993 -0.282064 31 -0.0250805V3.93948H31.005ZM0 24.0605C3.72883e-09 23.8033 0.0994065 23.5566 0.276351 23.3748C0.453296 23.1929 0.693285 23.0907 0.943522 23.0907C1.19376 23.0907 1.43375 23.1929 1.61069 23.3748C1.78764 23.5566 1.88704 23.8033 1.88704 24.0605V27.0631H6.34481C6.47231 27.0563 6.59983 27.0762 6.71959 27.1217C6.83936 27.1672 6.94887 27.2372 7.04145 27.3276C7.13404 27.4179 7.20777 27.5267 7.25815 27.6473C7.30853 27.7679 7.33451 27.8977 7.33451 28.0289C7.33451 28.1602 7.30853 28.29 7.25815 28.4106C7.20777 28.5312 7.13404 28.6399 7.04145 28.7303C6.94887 28.8207 6.83936 28.8907 6.71959 28.9362C6.59983 28.9816 6.47231 29.0016 6.34481 28.9948H1.0293H0.943522C0.696082 28.9942 0.458732 28.8939 0.282356 28.7155C0.10598 28.5372 0.00461812 28.2949 0 28.0406L0 24.0605Z" fill="url(#paint0_linear_1_193)"/>
</g>
<defs>
<linearGradient id="paint0_linear_1_193" x1="15.5025" y1="-1.00131" x2="15.5025" y2="29.0117" gradientUnits="userSpaceOnUse">
<stop stop-color="#0066FF"/>
<stop offset="1" stop-color="#260093"/>
</linearGradient>
<clipPath id="clip0_1_193">
<rect width="31" height="30" fill="white"/>
</clipPath>
</defs>
</svg>
